<?xml version="1.0" encoding="utf-8"?>
<!-- Generator: Adobe Illustrator 22.1.0, SVG Export Plug-In . SVG Version: 6.00 Build 0)  -->
<svg version="1.1" id="Livello_1" xmlns="http://www.w3.org/2000/svg" xmlns:xlink="http://www.w3.org/1999/xlink" x="0px" y="0px"
	 viewBox="0 0 595.3 127.8" style="enable-background:new 0 0 595.3 127.8;" xml:space="preserve">
<g>
	<path d="M0,125.4V0h27.3l55.9,70.1V0h32v125.4H88.1L32.2,55.5v69.9H0z"/>
	<path d="M285,0v70.6c0,8-1.3,15.5-3.8,22.5c-2.5,7-6.2,13-11.1,18.2c-4.9,5.1-10.9,9.2-18.1,12.1c-7.2,2.9-15.4,4.4-24.8,4.4
		c-9.4,0-17.7-1.5-24.9-4.4c-7.2-2.9-13.2-7-18-12.1c-4.8-5.1-8.5-11.2-10.9-18.2c-2.5-7-3.7-14.5-3.7-22.5V0h32.2v68.6
		c0,9.1,2.1,16.1,6.4,20.9c4.3,4.8,10.6,7.2,19,7.2c8.5,0,14.9-2.4,19.2-7.2c4.3-4.8,6.5-11.8,6.5-20.9V0H285z"/>
	<path d="M339.5,0h62.4c6.8,0,12.7,0.9,17.8,2.6c5.1,1.7,9.3,4.1,12.7,7.2c3.4,3.1,5.9,6.8,7.6,11c1.7,4.2,2.6,8.8,2.6,13.7
		c0,6.4-1.4,11.8-4.1,16.1c-2.7,4.3-6.5,7.7-11.2,10.3c6.4,2.5,11.5,6.1,15.3,10.9c3.8,4.8,5.6,10.8,5.6,18.2
		c0,5.1-0.9,9.9-2.8,14.2c-1.9,4.3-4.6,8.1-8.1,11.3c-3.5,3.2-7.8,5.6-12.9,7.3c-5,1.7-10.7,2.6-17,2.6h-67.8V0z M371.7,29.3v19.9
		h26.5c4.4,0,7.5-0.9,9.2-2.7c1.8-1.8,2.7-4.2,2.7-7.2c0-3-0.8-5.4-2.5-7.2c-1.7-1.8-4.2-2.7-7.6-2.7H371.7z M371.7,74.3v22h32.2
		c4.4,0,7.5-1,9.2-3.1c1.8-2.1,2.7-4.8,2.7-8.1c0-3.2-0.9-5.8-2.7-7.8c-1.8-2-4.8-3-9.2-3H371.7z"/>
	<path d="M499,0h96.3v31.2h-64.1v18h52.7v29.1h-52.7v16.1h64.1v31H499V0z"/>
</g>
</svg>
